<svg xmlns="http://www.w3.org/2000/svg" version="1.1" xmlns:xlink="http://www.w3.org/1999/xlink" xmlns:svgjs="http://svgjs.dev/svgjs" width="1500" height="935" viewBox="0 0 1500 935"><g transform="matrix(1,0,0,1,-0.9090909090909918,0.3785425101214628)"><svg viewBox="0 0 396 247" data-background-color="#fafafa" preserveAspectRatio="xMidYMid meet" height="935" width="1500" xmlns="http://www.w3.org/2000/svg" xmlns:xlink="http://www.w3.org/1999/xlink"><g id="tight-bounds" transform="matrix(1,0,0,1,0.2400000000000091,-0.09999999999999432)"><svg viewBox="0 0 395.52 247.2" height="247.2" width="395.52"><g><svg></svg></g><g><svg viewBox="0 0 395.52 247.2" height="247.2" width="395.52"><g transform="matrix(1,0,0,1,75.54432,71.94077396585277)"><svg viewBox="0 0 244.43135999999998 103.31845206829446" height="103.31845206829446" width="244.43135999999998"><g><svg viewBox="0 0 244.43135999999998 103.31845206829446" height="103.31845206829446" width="244.43135999999998"><g><svg viewBox="0 0 361.42315672686226 152.7696" height="103.31845206829446" width="244.43135999999998"><g><svg viewBox="0 0 225.89075645981688 152.7696" height="152.7696" width="225.89075645981688"><g id="textblocktransform"><svg viewBox="0 0 225.89075645981688 152.7696" height="152.7696" width="225.89075645981688" id="textblock"><g><svg viewBox="0 0 225.89075645981688 152.7696" height="152.7696" width="225.89075645981688"><g transform="matrix(1,0,0,1,0,0)"><svg width="225.89075645981688" viewBox="4.575002499999999 -35.24999999999999 218.02499749999998 144.14999999999998" height="152.7696" data-palette-color="#475f45"><svg></svg><svg></svg><svg></svg><g class="wordmark-text-0" data-fill-palette-color="primary" id="text-0"><path d="M4.6 0.05v0c-0.033-0.333-0.033-0.667 0-1v0c1.167-0.1 2.01-0.2 2.53-0.3 0.513-0.1 0.83-0.343 0.95-0.73 0.113-0.38 0.17-1.003 0.17-1.87v0-26.85c0-1-0.067-1.717-0.2-2.15-0.133-0.433-0.44-0.727-0.92-0.88-0.487-0.147-1.297-0.253-2.43-0.32v0c-0.033-0.333-0.033-0.667 0-1v0c0.8 0 1.443 0.01 1.93 0.03 0.48 0.013 1.087 0.027 1.82 0.04 0.733 0.02 1.833 0.03 3.3 0.03v0c1.367 0 2.867-0.01 4.5-0.03 1.633-0.013 3.193-0.02 4.68-0.02 1.48 0 2.703-0.007 3.67-0.02 0.967-0.02 1.467-0.03 1.5-0.03v0c0.133 0.933 0.267 1.9 0.4 2.9 0.133 1 0.3 2.05 0.5 3.15v0c-0.367 0.033-0.7 0.033-1 0v0c-0.333-0.933-0.65-1.65-0.95-2.15-0.3-0.5-0.65-0.917-1.05-1.25v0c-0.833-0.7-2.217-1.05-4.15-1.05v0h-7.6v15.1h5.75c1.167 0 2.033-0.067 2.6-0.2 0.567-0.133 0.967-0.477 1.2-1.03 0.233-0.547 0.433-1.437 0.6-2.67v0c0.367-0.033 0.717-0.033 1.05 0v0c0 0.233-0.017 0.807-0.05 1.72-0.033 0.92-0.05 1.947-0.05 3.08v0c0 1.033 0.017 2.04 0.05 3.02 0.033 0.987 0.05 1.63 0.05 1.93v0c-0.3 0.033-0.65 0.033-1.05 0v0c-0.133-1.4-0.317-2.393-0.55-2.98-0.233-0.58-0.617-0.937-1.15-1.07-0.533-0.133-1.333-0.2-2.4-0.2v0h-6.05v12.45c0 0.733 0.027 1.307 0.08 1.72 0.047 0.42 0.187 0.747 0.42 0.98v0c0.233 0.233 0.6 0.383 1.1 0.45 0.5 0.067 1.267 0.133 2.3 0.2v0c0.033 0.333 0.033 0.667 0 1v0c-0.5 0-1.123-0.007-1.87-0.02-0.753-0.02-1.503-0.04-2.25-0.06-0.753-0.013-1.363-0.02-1.83-0.02v0c-0.733 0-1.657 0.017-2.77 0.05-1.12 0.033-2.063 0.05-2.83 0.05zM41.85-31.15v0 26.85c0 1 0.05 1.723 0.15 2.17 0.1 0.453 0.4 0.737 0.9 0.85 0.5 0.12 1.35 0.23 2.55 0.33v0c0.033 0.333 0.033 0.667 0 1v0c-0.733 0-1.683-0.017-2.85-0.05-1.167-0.033-2.083-0.05-2.75-0.05v0c-0.733 0-1.667 0.017-2.8 0.05-1.133 0.033-2.083 0.05-2.85 0.05v0c-0.033-0.333-0.033-0.667 0-1v0c1.167-0.1 2.01-0.2 2.53-0.3 0.513-0.1 0.83-0.343 0.95-0.73 0.113-0.38 0.17-1.003 0.17-1.87v0-26.85c0-1-0.067-1.717-0.2-2.15-0.133-0.433-0.45-0.727-0.95-0.88-0.5-0.147-1.333-0.253-2.5-0.32v0c-0.033-0.333-0.033-0.667 0-1v0c0.5 0 1.11 0.01 1.83 0.03 0.713 0.013 1.42 0.027 2.12 0.04 0.7 0.02 1.283 0.03 1.75 0.03v0c0.467 0 1.043-0.01 1.73-0.03 0.68-0.013 1.37-0.027 2.07-0.04 0.7-0.02 1.283-0.03 1.75-0.03v0c0.033 0.333 0.033 0.667 0 1v0c-1.167 0.1-2 0.2-2.5 0.3-0.5 0.1-0.807 0.333-0.92 0.7-0.12 0.367-0.18 1-0.18 1.9zM83.45 0.25v0l-23.75-30.75v25.3c0 0.933 0.027 1.64 0.08 2.12 0.047 0.487 0.187 0.863 0.42 1.13v0c0.267 0.233 0.65 0.44 1.15 0.62 0.5 0.187 1.217 0.313 2.15 0.38v0c0.033 0.333 0.033 0.667 0 1v0c-0.733 0-1.54-0.017-2.42-0.05-0.887-0.033-1.63-0.05-2.23-0.05v0c-0.6 0-1.34 0.017-2.22 0.05-0.887 0.033-1.68 0.05-2.38 0.05v0c-0.033-0.333-0.033-0.667 0-1v0c1.167-0.133 2-0.283 2.5-0.45 0.5-0.167 0.81-0.493 0.93-0.98 0.113-0.48 0.17-1.27 0.17-2.37v0-24.85c0-1.3-0.067-2.243-0.2-2.83-0.133-0.58-0.473-0.97-1.02-1.17-0.553-0.2-1.447-0.367-2.68-0.5v0c-0.033-0.3-0.033-0.617 0-0.95v0c0.767 0 1.577 0.017 2.43 0.05 0.847 0.033 1.687 0.05 2.52 0.05v0c0.1 0 0.427 0 0.98 0 0.547 0 1.037-0.017 1.47-0.05v0l22.3 28.95v-23.7c0-0.9-0.017-1.61-0.05-2.13-0.033-0.513-0.183-0.887-0.45-1.12v0c-0.5-0.567-1.733-0.917-3.7-1.05v0c-0.033-0.333-0.033-0.65 0-0.95v0c0.7 0 1.567 0.007 2.6 0.02 1.033 0.02 1.85 0.03 2.45 0.03v0c0.6 0 1.34-0.01 2.22-0.03 0.887-0.013 1.697-0.02 2.43-0.02v0c0.033 0.3 0.033 0.617 0 0.95v0c-1.167 0.133-2.007 0.29-2.52 0.47-0.52 0.187-0.837 0.52-0.95 1-0.12 0.487-0.18 1.28-0.18 2.38v0 30.25c-0.233 0.067-0.557 0.117-0.97 0.15-0.42 0.033-0.78 0.05-1.08 0.05zM91.45 0.05v0c-0.033-0.333-0.033-0.667 0-1v0c1.1-0.1 1.923-0.227 2.47-0.38 0.553-0.147 0.997-0.497 1.33-1.05 0.333-0.547 0.717-1.437 1.15-2.67v0l11.1-29.9c0.267-0.1 0.59-0.177 0.97-0.23 0.387-0.047 0.697-0.07 0.93-0.07v0l11.2 30.5c0.433 1.167 0.79 2 1.07 2.5 0.287 0.5 0.697 0.817 1.23 0.95 0.533 0.133 1.367 0.25 2.5 0.35v0c0.033 0.333 0.033 0.667 0 1v0c-0.867 0-1.843-0.017-2.93-0.05-1.08-0.033-2.07-0.05-2.97-0.05v0c-0.933 0-1.807 0.017-2.62 0.05-0.82 0.033-1.697 0.05-2.63 0.05v0c-0.033-0.333-0.033-0.667 0-1v0c1.167-0.1 1.943-0.21 2.33-0.33 0.38-0.113 0.57-0.403 0.57-0.87v0c0-0.167-0.033-0.377-0.1-0.63-0.067-0.247-0.167-0.553-0.3-0.92v0l-3.45-9.65h-11.9l-3.25 9.1c-0.333 0.9-0.5 1.55-0.5 1.95v0c0 0.533 0.25 0.867 0.75 1 0.5 0.133 1.317 0.25 2.45 0.35v0c0.033 0.333 0.033 0.667 0 1v0c-0.833 0-1.643-0.017-2.43-0.05-0.78-0.033-1.587-0.05-2.42-0.05v0c-0.667 0-1.407 0.017-2.22 0.05-0.82 0.033-1.597 0.05-2.33 0.05zM107.3-29.95l-5.35 15.05h10.75zM129.85 0.05v0c-0.033-0.333-0.033-0.667 0-1v0c1.133-0.1 1.95-0.21 2.45-0.33 0.5-0.113 0.807-0.353 0.92-0.72 0.12-0.367 0.18-0.983 0.18-1.85v0-26.85c0-1-0.067-1.717-0.2-2.15-0.133-0.433-0.44-0.727-0.92-0.88-0.487-0.147-1.297-0.253-2.43-0.32v0c-0.033-0.333-0.033-0.667 0-1v0c0.767 0 1.717 0.017 2.85 0.05 1.133 0.033 2.033 0.05 2.7 0.05v0c0.433 0 1-0.01 1.7-0.03 0.7-0.013 1.407-0.027 2.12-0.04 0.72-0.02 1.313-0.03 1.78-0.03v0c0.033 0.333 0.033 0.667 0 1v0c-1.167 0.1-2 0.2-2.5 0.3-0.5 0.1-0.807 0.333-0.92 0.7-0.12 0.367-0.18 1-0.18 1.9v0 26.65c0 0.833 0 1.49 0 1.97 0 0.487 0.017 0.813 0.05 0.98v0h7.3c1.167 0 2.117-0.083 2.85-0.25 0.733-0.167 1.317-0.5 1.75-1v0c0.367-0.4 0.76-0.993 1.18-1.78 0.413-0.78 0.787-1.737 1.12-2.87v0c0.3-0.033 0.6-0.033 0.9 0v0c-0.267 1.5-0.507 2.917-0.72 4.25-0.22 1.333-0.397 2.4-0.53 3.2v0c-1.567 0-3.273-0.01-5.12-0.03-1.853-0.013-3.703-0.02-5.55-0.02-1.853 0-3.563 0-5.13 0v0c-0.467 0-1.05 0.007-1.75 0.02-0.7 0.02-1.4 0.04-2.1 0.06-0.7 0.013-1.3 0.02-1.8 0.02z" fill="#475f45" fill-rule="nonzero" stroke="none" stroke-width="1" stroke-linecap="butt" stroke-linejoin="miter" stroke-miterlimit="10" stroke-dasharray="" stroke-dashoffset="0" font-family="none" font-weight="none" font-size="none" text-anchor="none" style="mix-blend-mode: normal" data-fill-palette-color="primary" opacity="1"></path><path transform="translate(0,49.15)" d="M4.7 0.05v0c-0.033-0.333-0.033-0.667 0-1v0c1.133-0.1 1.95-0.21 2.45-0.33 0.5-0.113 0.81-0.353 0.93-0.72 0.113-0.367 0.17-0.983 0.17-1.85v0-26.85c0-1-0.067-1.717-0.2-2.15-0.133-0.433-0.44-0.727-0.92-0.88-0.487-0.147-1.297-0.253-2.43-0.32v0c-0.033-0.333-0.033-0.667 0-1v0c0.833 0 1.543 0.01 2.13 0.03 0.58 0.013 1.263 0.027 2.05 0.04 0.78 0.02 1.853 0.03 3.22 0.03v0c1.433 0 2.883-0.01 4.35-0.03 1.467-0.013 2.833-0.02 4.1-0.02 1.267 0 2.317-0.007 3.15-0.02 0.833-0.02 1.317-0.03 1.45-0.03v0c0.2 1.9 0.483 3.917 0.85 6.05v0c-0.367 0.033-0.7 0.033-1 0v0c-0.267-0.9-0.55-1.627-0.85-2.18-0.3-0.547-0.617-0.97-0.95-1.27v0c-0.433-0.4-0.973-0.667-1.62-0.8-0.653-0.133-1.463-0.2-2.43-0.2v0h-6.9v14.6h5.25c1.167 0 2.033-0.067 2.6-0.2 0.567-0.133 0.967-0.477 1.2-1.03 0.233-0.547 0.433-1.437 0.6-2.67v0c0.367-0.033 0.717-0.033 1.05 0v0c0 0.233-0.017 0.807-0.05 1.72-0.033 0.92-0.05 1.947-0.05 3.08v0c0 1.033 0.017 2.007 0.05 2.92 0.033 0.92 0.05 1.53 0.05 1.83v0c-0.3 0.033-0.65 0.033-1.05 0v0c-0.133-1.333-0.317-2.277-0.55-2.83-0.233-0.547-0.617-0.887-1.15-1.02-0.533-0.133-1.333-0.2-2.4-0.2v0h-5.55v15.7h6.65c1.2 0 2.227-0.077 3.08-0.23 0.847-0.147 1.503-0.453 1.97-0.92v0c0.333-0.333 0.693-0.867 1.08-1.6 0.38-0.733 0.77-1.6 1.17-2.6v0c0.3-0.033 0.617-0.033 0.95 0v0c-0.267 1.333-0.49 2.617-0.67 3.85-0.187 1.233-0.33 2.25-0.43 3.05v0c-1.1 0-2.367 0-3.8 0-1.433 0-2.883-0.01-4.35-0.03-1.467-0.013-2.8-0.02-4-0.02-1.2 0-2.117 0-2.75 0v0c-1.133 0-2.057 0.007-2.77 0.02-0.72 0.02-1.347 0.04-1.88 0.06-0.533 0.013-1.133 0.02-1.8 0.02zM50.95 0.05v0c-0.033-0.333-0.033-0.667 0-1v0c1.067-0.067 1.833-0.177 2.3-0.33 0.467-0.147 0.7-0.37 0.7-0.67v0c0-0.267-0.233-0.783-0.7-1.55v0l-7.4-12.25-7.95 12.15c-0.233 0.333-0.417 0.633-0.55 0.9-0.133 0.267-0.2 0.483-0.2 0.65v0c0 0.333 0.267 0.573 0.8 0.72 0.533 0.153 1.367 0.28 2.5 0.38v0c0.033 0.333 0.033 0.667 0 1v0c-0.333 0-0.873-0.007-1.62-0.02-0.753-0.02-1.503-0.04-2.25-0.06-0.753-0.013-1.297-0.02-1.63-0.02v0c-0.767 0-1.55 0.017-2.35 0.05-0.8 0.033-1.483 0.05-2.05 0.05v0c-0.033-0.333-0.033-0.667 0-1v0c1.067-0.1 1.9-0.243 2.5-0.43 0.6-0.18 1.15-0.547 1.65-1.1 0.5-0.547 1.133-1.387 1.9-2.52v0l8.25-12.4-7.85-12.95c-0.633-1.067-1.183-1.85-1.65-2.35-0.467-0.5-0.983-0.833-1.55-1-0.567-0.167-1.35-0.283-2.35-0.35v0c-0.033-0.333-0.033-0.667 0-1v0c0.867 0 1.827 0.017 2.88 0.05 1.047 0.033 2.003 0.05 2.87 0.05v0c0.8 0 1.783-0.017 2.95-0.05 1.167-0.033 2.133-0.05 2.9-0.05v0c0.033 0.333 0.033 0.667 0 1v0c-1.033 0.067-1.757 0.173-2.17 0.32-0.42 0.153-0.63 0.38-0.63 0.68v0c0 0.3 0.217 0.817 0.65 1.55v0l6.5 10.75 6.95-10.65c0.467-0.7 0.7-1.217 0.7-1.55v0c0-0.367-0.25-0.61-0.75-0.73-0.5-0.113-1.283-0.237-2.35-0.37v0c-0.033-0.333-0.033-0.667 0-1v0c0.367 0 0.91 0.01 1.63 0.03 0.713 0.013 1.43 0.027 2.15 0.04 0.713 0.02 1.237 0.03 1.57 0.03v0c0.767 0 1.583-0.017 2.45-0.05 0.867-0.033 1.517-0.05 1.95-0.05v0c0.033 0.333 0.033 0.667 0 1v0c-1 0.067-1.817 0.2-2.45 0.4-0.633 0.2-1.217 0.567-1.75 1.1-0.533 0.533-1.167 1.367-1.9 2.5v0l-7.25 10.85 8.8 14.55c0.667 1.1 1.217 1.893 1.65 2.38 0.433 0.48 0.943 0.793 1.53 0.94 0.58 0.153 1.37 0.28 2.37 0.38v0c0.033 0.333 0.033 0.667 0 1v0c-0.9 0-1.85-0.017-2.85-0.05-1-0.033-1.967-0.05-2.9-0.05v0c-0.767 0-1.757 0.017-2.97 0.05-1.22 0.033-2.23 0.05-3.03 0.05zM62.45 0.05v0c-0.033-0.333-0.033-0.667 0-1v0c1.1-0.1 1.923-0.227 2.47-0.38 0.553-0.147 0.997-0.497 1.33-1.05 0.333-0.547 0.717-1.437 1.15-2.67v0l11.1-29.9c0.267-0.1 0.59-0.177 0.97-0.23 0.387-0.047 0.697-0.07 0.93-0.07v0l11.2 30.5c0.433 1.167 0.79 2 1.07 2.5 0.287 0.5 0.697 0.817 1.23 0.95 0.533 0.133 1.367 0.25 2.5 0.35v0c0.033 0.333 0.033 0.667 0 1v0c-0.867 0-1.843-0.017-2.93-0.05-1.08-0.033-2.07-0.05-2.97-0.05v0c-0.933 0-1.807 0.017-2.62 0.05-0.82 0.033-1.697 0.05-2.63 0.05v0c-0.033-0.333-0.033-0.667 0-1v0c1.167-0.1 1.943-0.21 2.33-0.33 0.38-0.113 0.57-0.403 0.57-0.87v0c0-0.167-0.033-0.377-0.1-0.63-0.067-0.247-0.167-0.553-0.3-0.92v0l-3.45-9.65h-11.9l-3.25 9.1c-0.333 0.9-0.5 1.55-0.5 1.95v0c0 0.533 0.25 0.867 0.75 1 0.5 0.133 1.317 0.25 2.45 0.35v0c0.033 0.333 0.033 0.667 0 1v0c-0.833 0-1.643-0.017-2.43-0.05-0.78-0.033-1.587-0.05-2.42-0.05v0c-0.667 0-1.407 0.017-2.22 0.05-0.82 0.033-1.597 0.05-2.33 0.05zM78.3-29.95l-5.35 15.05h10.75zM109.6-35l11.9 29.45 12.35-29.45c0.5 0.033 1.033 0.05 1.6 0.05 0.567 0 1.033 0 1.4 0v0c0.2 0 0.56-0.01 1.08-0.03 0.513-0.013 1.087-0.02 1.72-0.02 0.633 0 1.21-0.007 1.73-0.02 0.513-0.02 0.87-0.03 1.07-0.03v0c0.033 0.3 0.033 0.617 0 0.95v0h-0.05c-1.133 0.1-1.95 0.21-2.45 0.33-0.5 0.113-0.807 0.353-0.92 0.72-0.12 0.367-0.18 0.983-0.18 1.85v0l0.45 26.95c0.033 1 0.127 1.717 0.28 2.15 0.147 0.433 0.497 0.717 1.05 0.85 0.547 0.133 1.403 0.25 2.57 0.35v0c0.033 0.3 0.033 0.617 0 0.95v0c-0.2 0-0.573-0.007-1.12-0.02-0.553-0.02-1.163-0.03-1.83-0.03-0.667 0-1.273-0.01-1.82-0.03-0.553-0.013-0.93-0.02-1.13-0.02v0c-0.2 0-0.557 0.007-1.07 0.02-0.52 0.02-1.087 0.03-1.7 0.03-0.62 0-1.197 0.01-1.73 0.03-0.533 0.013-0.9 0.02-1.1 0.02v0c-0.033-0.333-0.033-0.65 0-0.95v0c1.1-0.1 1.91-0.21 2.43-0.33 0.513-0.113 0.847-0.363 1-0.75 0.147-0.38 0.203-0.987 0.17-1.82v0l-0.45-29.25-13.75 33c-0.167 0.067-0.423 0.117-0.77 0.15-0.353 0.033-0.663 0.05-0.93 0.05v0l-13-32.4-0.9 28.45c-0.033 0.8 0.01 1.373 0.13 1.72 0.113 0.353 0.43 0.597 0.95 0.73 0.513 0.133 1.337 0.283 2.47 0.45v0c0.033 0.3 0.033 0.617 0 0.95v0c-0.233 0-0.667-0.007-1.3-0.02-0.633-0.02-1.257-0.04-1.87-0.06-0.62-0.013-1.063-0.02-1.33-0.02v0c-0.167 0-0.6 0.007-1.3 0.02-0.7 0.02-1.4 0.04-2.1 0.06-0.7 0.013-1.15 0.02-1.35 0.02v0c-0.033-0.333-0.033-0.65 0-0.95v0c1.167-0.133 2.01-0.277 2.53-0.43 0.513-0.147 0.853-0.437 1.02-0.87 0.167-0.433 0.267-1.117 0.3-2.05v0l1-26.95c0.033-0.867-0.017-1.483-0.15-1.85-0.133-0.367-0.467-0.607-1-0.72-0.533-0.12-1.4-0.23-2.6-0.33v0c-0.033-0.333-0.033-0.65 0-0.95v0c0.833 0 1.717 0.017 2.65 0.05 0.933 0.033 1.917 0.05 2.95 0.05v0c0.367 0 0.85 0 1.45 0 0.6 0 1.15-0.017 1.65-0.05z" fill="#6a704c" fill-rule="nonzero" stroke="none" stroke-width="1" stroke-linecap="butt" stroke-linejoin="miter" stroke-miterlimit="10" stroke-dasharray="" stroke-dashoffset="0" font-family="none" font-weight="none" font-size="none" text-anchor="none" style="mix-blend-mode: normal" data-fill-palette-color="secondary" opacity="1"></path><path transform="translate(0,98.3)" d="M15.5-15.6v0c-0.567 0-1.083-0.027-1.55-0.08-0.467-0.047-1.033-0.153-1.7-0.32v0 11.7c0 0.8 0.027 1.39 0.08 1.77 0.047 0.387 0.187 0.697 0.42 0.93v0c0.267 0.233 0.633 0.383 1.1 0.45 0.467 0.067 1.267 0.133 2.4 0.2v0c0.033 0.333 0.033 0.667 0 1v0c-0.533 0-1.183-0.007-1.95-0.02-0.767-0.02-1.517-0.04-2.25-0.06-0.733-0.013-1.333-0.02-1.8-0.02v0c-0.733 0-1.667 0.017-2.8 0.05-1.133 0.033-2.083 0.05-2.85 0.05v0c-0.033-0.333-0.033-0.667 0-1v0c1.167-0.1 2.01-0.2 2.53-0.3 0.513-0.1 0.83-0.343 0.95-0.73 0.113-0.38 0.17-1.003 0.17-1.87v0-26.85c0-1-0.067-1.717-0.2-2.15-0.133-0.433-0.45-0.727-0.95-0.88-0.5-0.147-1.333-0.253-2.5-0.32v0c-0.033-0.333-0.033-0.667 0-1v0c0.5 0 1.11 0.01 1.83 0.03 0.713 0.013 1.42 0.027 2.12 0.04 0.7 0.02 1.267 0.03 1.7 0.03v0c0.467 0 1.133-0.01 2-0.03 0.867-0.013 1.743-0.027 2.63-0.04 0.88-0.02 1.52-0.03 1.92-0.03v0c1.933 0 3.727 0.283 5.38 0.85 1.647 0.567 2.98 1.507 4 2.82 1.013 1.32 1.52 3.13 1.52 5.43v0c0 2.3-0.533 4.217-1.6 5.75-1.067 1.533-2.517 2.683-4.35 3.45-1.833 0.767-3.917 1.15-6.25 1.15zM12.25-33.45v16.05c0.533 0.133 1.027 0.217 1.48 0.25 0.447 0.033 0.82 0.05 1.12 0.05v0c2.767 0 4.877-0.767 6.33-2.3 1.447-1.533 2.17-3.617 2.17-6.25v0c0-2.467-0.683-4.41-2.05-5.83-1.367-1.413-3.433-2.12-6.2-2.12v0c-0.367 0-0.817 0.007-1.35 0.02-0.533 0.02-1.033 0.063-1.5 0.13zM43.45-16.3v0l-1.25-0.1v12.1c0 1 0.067 1.723 0.2 2.17 0.133 0.453 0.46 0.737 0.98 0.85 0.513 0.12 1.37 0.23 2.57 0.33v0c0.033 0.333 0.033 0.667 0 1v0c-0.467 0-1.073-0.007-1.82-0.02-0.753-0.02-1.487-0.04-2.2-0.06-0.72-0.013-1.313-0.02-1.78-0.02v0c-0.433 0-1.007 0.007-1.72 0.02-0.72 0.02-1.43 0.04-2.13 0.06-0.7 0.013-1.283 0.02-1.75 0.02v0c-0.033-0.333-0.033-0.667 0-1v0c1.167-0.1 2.01-0.2 2.53-0.3 0.513-0.1 0.83-0.343 0.95-0.73 0.113-0.38 0.17-1.003 0.17-1.87v0-26.9c0-1-0.067-1.717-0.2-2.15-0.133-0.433-0.457-0.717-0.97-0.85-0.52-0.133-1.347-0.233-2.48-0.3v0c-0.033-0.333-0.033-0.667 0-1v0c0.467 0 1.06 0.01 1.78 0.03 0.713 0.013 1.43 0.027 2.15 0.04 0.713 0.02 1.287 0.03 1.72 0.03v0c0.433 0 1.083-0.01 1.95-0.03 0.867-0.013 1.733-0.027 2.6-0.04 0.867-0.02 1.5-0.03 1.9-0.03v0c1.9 0 3.667 0.283 5.3 0.85 1.633 0.567 2.96 1.473 3.98 2.72 1.013 1.253 1.52 2.93 1.52 5.03v0c0 2.467-0.733 4.467-2.2 6-1.467 1.533-3.433 2.683-5.9 3.45v0 0.15c0.467 0.233 0.91 0.523 1.33 0.87 0.413 0.353 0.887 0.863 1.42 1.53v0c0.4 0.5 0.977 1.3 1.73 2.4 0.747 1.1 1.547 2.293 2.4 3.58 0.847 1.28 1.62 2.47 2.32 3.57v0c0.767 1.2 1.417 2.057 1.95 2.57 0.533 0.52 1.117 0.853 1.75 1 0.633 0.153 1.483 0.28 2.55 0.38v0c0.033 0.333 0.033 0.667 0 1v0c-0.467 0-1.067-0.007-1.8-0.02-0.733-0.02-1.44-0.04-2.12-0.06-0.687-0.013-1.213-0.02-1.58-0.02v0c-0.4 0-0.783 0.007-1.15 0.02-0.367 0.02-0.733 0.03-1.1 0.03v0c-0.367-0.633-0.9-1.51-1.6-2.63-0.7-1.113-1.483-2.337-2.35-3.67-0.867-1.333-1.723-2.643-2.57-3.93-0.853-1.28-1.613-2.37-2.28-3.27v0c-0.567-0.8-1.067-1.383-1.5-1.75-0.433-0.367-0.89-0.617-1.37-0.75-0.487-0.133-1.13-0.233-1.93-0.3zM42.2-33.45v15.55c0.433 0.067 0.817 0.107 1.15 0.12 0.333 0.02 0.65 0.03 0.95 0.03v0c2.667 0 4.81-0.66 6.43-1.98 1.613-1.313 2.42-3.37 2.42-6.17v0c0-2.5-0.683-4.41-2.05-5.73-1.367-1.313-3.383-1.97-6.05-1.97v0c-0.833 0-1.783 0.05-2.85 0.15zM102-17.75v0c0 3.6-0.75 6.777-2.25 9.53-1.5 2.747-3.617 4.903-6.35 6.47-2.733 1.567-5.967 2.35-9.7 2.35v0c-3.7 0-6.883-0.767-9.55-2.3-2.667-1.533-4.717-3.643-6.15-6.33-1.433-2.68-2.15-5.737-2.15-9.17v0c0-3.533 0.75-6.683 2.25-9.45 1.5-2.767 3.623-4.943 6.37-6.53 2.753-1.58 5.997-2.37 9.73-2.37v0c3.667 0 6.827 0.76 9.48 2.28 2.647 1.513 4.697 3.61 6.15 6.29 1.447 2.687 2.17 5.763 2.17 9.23zM97.55-17.25v0c0-2.1-0.25-4.15-0.75-6.15-0.5-2-1.283-3.8-2.35-5.4-1.067-1.6-2.467-2.877-4.2-3.83-1.733-0.947-3.833-1.42-6.3-1.42v0c-2.467 0-4.567 0.473-6.3 1.42-1.733 0.953-3.133 2.23-4.2 3.83-1.067 1.6-1.85 3.373-2.35 5.32-0.5 1.953-0.75 3.93-0.75 5.93v0c0 2 0.25 3.983 0.75 5.95 0.5 1.967 1.3 3.767 2.4 5.4 1.1 1.633 2.533 2.933 4.3 3.9 1.767 0.967 3.9 1.45 6.4 1.45v0c2.467 0 4.557-0.467 6.27-1.4 1.72-0.933 3.097-2.177 4.13-3.73 1.033-1.547 1.783-3.303 2.25-5.27 0.467-1.967 0.7-3.967 0.7-6zM107.5 10.6v0c-1.1 0-1.99-0.223-2.67-0.67-0.687-0.453-1.03-1.063-1.03-1.83v0c0-0.667 0.223-1.183 0.67-1.55 0.453-0.367 0.997-0.55 1.63-0.55v0c0.767 0 1.433 0.283 2 0.85 0.567 0.567 1.033 1.2 1.4 1.9v0c1.1-0.233 1.877-0.773 2.33-1.62 0.447-0.853 0.713-1.947 0.8-3.28 0.08-1.333 0.12-2.8 0.12-4.4v0-30.15c0-1-0.057-1.717-0.17-2.15-0.12-0.433-0.43-0.727-0.93-0.88-0.5-0.147-1.333-0.253-2.5-0.32v0c-0.033-0.333-0.033-0.667 0-1v0c0.7 0 1.623 0.017 2.77 0.05 1.153 0.033 2.097 0.05 2.83 0.05v0c0.767 0 1.7-0.017 2.8-0.05 1.1-0.033 2.033-0.05 2.8-0.05v0 1c-1.167 0.1-2.007 0.2-2.52 0.3-0.52 0.1-0.837 0.333-0.95 0.7-0.12 0.367-0.18 1-0.18 1.9v0 28.85c0 2.233-0.217 4.133-0.65 5.7-0.433 1.567-1.117 2.917-2.05 4.05v0c-0.867 1.033-1.877 1.817-3.03 2.35-1.147 0.533-2.303 0.8-3.47 0.8zM128.65 0.05v0c-0.033-0.333-0.033-0.667 0-1v0c1.133-0.1 1.95-0.21 2.45-0.33 0.5-0.113 0.81-0.353 0.93-0.72 0.113-0.367 0.17-0.983 0.17-1.85v0-26.85c0-1-0.067-1.717-0.2-2.15-0.133-0.433-0.443-0.727-0.93-0.88-0.48-0.147-1.287-0.253-2.42-0.32v0c-0.033-0.333-0.033-0.667 0-1v0c0.833 0 1.543 0.01 2.13 0.03 0.58 0.013 1.26 0.027 2.04 0.04 0.787 0.02 1.863 0.03 3.23 0.03v0c1.433 0 2.883-0.01 4.35-0.03 1.467-0.013 2.833-0.02 4.1-0.02 1.267 0 2.317-0.007 3.15-0.02 0.833-0.02 1.317-0.03 1.45-0.03v0c0.2 1.9 0.483 3.917 0.85 6.05v0c-0.367 0.033-0.7 0.033-1 0v0c-0.267-0.9-0.55-1.627-0.85-2.18-0.3-0.547-0.617-0.97-0.95-1.27v0c-0.433-0.4-0.973-0.667-1.62-0.8-0.653-0.133-1.463-0.2-2.43-0.2v0h-6.9v14.6h5.25c1.167 0 2.033-0.067 2.6-0.2 0.567-0.133 0.967-0.477 1.2-1.03 0.233-0.547 0.433-1.437 0.6-2.67v0c0.367-0.033 0.717-0.033 1.05 0v0c0 0.233-0.017 0.807-0.05 1.72-0.033 0.92-0.05 1.947-0.05 3.08v0c0 1.033 0.017 2.007 0.05 2.92 0.033 0.92 0.05 1.53 0.05 1.83v0c-0.3 0.033-0.65 0.033-1.05 0v0c-0.133-1.333-0.317-2.277-0.55-2.83-0.233-0.547-0.617-0.887-1.15-1.02-0.533-0.133-1.333-0.2-2.4-0.2v0h-5.55v15.7h6.65c1.2 0 2.227-0.077 3.08-0.23 0.847-0.147 1.503-0.453 1.97-0.92v0c0.333-0.333 0.69-0.867 1.07-1.6 0.387-0.733 0.78-1.6 1.18-2.6v0c0.3-0.033 0.617-0.033 0.95 0v0c-0.267 1.333-0.49 2.617-0.67 3.85-0.187 1.233-0.33 2.25-0.43 3.05v0c-1.1 0-2.367 0-3.8 0-1.433 0-2.883-0.01-4.35-0.03-1.467-0.013-2.8-0.02-4-0.02-1.2 0-2.117 0-2.75 0v0c-1.133 0-2.06 0.007-2.78 0.02-0.713 0.02-1.337 0.04-1.87 0.06-0.533 0.013-1.133 0.02-1.8 0.02zM188.35-8.5v0c-0.133 1.067-0.273 2.307-0.42 3.72-0.153 1.42-0.263 2.697-0.33 3.83v0c-1.5 0.3-3.24 0.633-5.22 1-1.987 0.367-4.063 0.55-6.23 0.55v0c-3.967 0-7.377-0.743-10.23-2.23-2.847-1.48-5.027-3.553-6.54-6.22-1.52-2.667-2.28-5.783-2.28-9.35v0c0-3.6 0.767-6.777 2.3-9.53 1.533-2.747 3.723-4.903 6.57-6.47 2.853-1.567 6.28-2.35 10.28-2.35v0c1.067 0 2.183 0.057 3.35 0.17 1.167 0.12 2.483 0.313 3.95 0.58v0c0.567 0.1 1.117 0.2 1.65 0.3 0.533 0.1 1.1 0.15 1.7 0.15v0c0.1 0 0.207 0 0.32 0 0.12 0 0.28-0.017 0.48-0.05v0c0.033 1.067 0.093 2.367 0.18 3.9 0.08 1.533 0.153 2.917 0.22 4.15v0c-0.2 0.033-0.367 0.057-0.5 0.07-0.133 0.02-0.283 0.03-0.45 0.03v0c-0.367-2.567-1.483-4.517-3.35-5.85-1.867-1.333-4.433-2-7.7-2v0c-2.8 0-5.133 0.457-7 1.37-1.867 0.92-3.35 2.153-4.45 3.7-1.1 1.553-1.883 3.32-2.35 5.3-0.467 1.987-0.7 4.03-0.7 6.13v0c0 2.267 0.26 4.407 0.78 6.42 0.513 2.02 1.37 3.797 2.57 5.33 1.2 1.533 2.783 2.74 4.75 3.62 1.967 0.887 4.4 1.33 7.3 1.33v0c3.3 0 5.717-0.633 7.25-1.9 1.533-1.267 2.55-3.167 3.05-5.7v0c0.067 0 0.143-0.01 0.23-0.03 0.08-0.013 0.17-0.02 0.27-0.02v0c0.067 0 0.15 0.007 0.25 0.02 0.1 0.02 0.2 0.03 0.3 0.03zM201.9 0.05v0c-0.033-0.333-0.033-0.667 0-1v0c1.2-0.1 2.057-0.2 2.57-0.3 0.52-0.1 0.837-0.343 0.95-0.73 0.12-0.38 0.18-1.003 0.18-1.87v0-29.65h-6.35c-1.333 0-2.333 0.15-3 0.45-0.667 0.3-1.183 0.823-1.55 1.57-0.367 0.753-0.75 1.847-1.15 3.28v0c-0.3 0.033-0.617 0.033-0.95 0v0c0.167-1.167 0.317-2.36 0.45-3.58 0.133-1.213 0.25-2.32 0.35-3.32v0c1.567 0.067 3.45 0.107 5.65 0.12 2.2 0.02 5.067 0.03 8.6 0.03v0c3.6 0 6.483-0.01 8.65-0.03 2.167-0.013 4.033-0.053 5.6-0.12v0c0.067 0.967 0.167 2.067 0.3 3.3 0.133 1.233 0.267 2.433 0.4 3.6v0c-0.367 0.033-0.7 0.033-1 0v0c-0.433-1.433-0.833-2.533-1.2-3.3-0.367-0.767-0.873-1.293-1.52-1.58-0.653-0.28-1.647-0.42-2.98-0.42v0h-6.3v29.2c0 1 0.06 1.723 0.18 2.17 0.113 0.453 0.427 0.737 0.94 0.85 0.52 0.12 1.38 0.23 2.58 0.33v0c0.033 0.333 0.033 0.667 0 1v0c-0.5 0-1.11-0.007-1.83-0.02-0.713-0.02-1.42-0.04-2.12-0.06-0.7-0.013-1.283-0.02-1.75-0.02v0c-0.7 0-1.633 0.017-2.8 0.05-1.167 0.033-2.133 0.05-2.9 0.05z" fill="#475f45" fill-rule="nonzero" stroke="none" stroke-width="1" stroke-linecap="butt" stroke-linejoin="miter" stroke-miterlimit="10" stroke-dasharray="" stroke-dashoffset="0" font-family="none" font-weight="none" font-size="none" text-anchor="none" style="mix-blend-mode: normal" data-fill-palette-color="primary" opacity="1"></path></g></svg></g></svg></g></svg></g></svg></g><g transform="matrix(1,0,0,1,237.17872285883377,11.181932144257999)"><svg viewBox="0 0 124.24443386802848 130.405735711484" height="130.405735711484" width="124.24443386802848"><g><svg xmlns="http://www.w3.org/2000/svg" xml:space="preserve" viewBox="18 17.974999999999998 61 64.025" x="0" y="0" height="130.405735711484" width="124.24443386802848" class="icon-icon-0" data-fill-palette-color="accent" id="icon-0"><path d="M46.5 79.5c9.6 0 18.4-4.8 23.7-12.7C71.5 82 72.9 82 74 82c1.2 0 2.7 0 4-18.1 0.6-8.5 0.9-17.1 1-19.9v-0.5c0-3.6 0-8.5-5-8.5s-5 4.9-5 8.5v1.4c-0.7-0.1-1.5-0.1-2.2-0.2-3.4-0.2-7.2-0.5-10.1-3.4s-3.2-6.7-3.5-10.1c-0.4-4.3-0.7-8.7-6.7-8.7C30.8 22.5 18 35.3 18 51s12.8 28.5 28.5 28.5m27.5-0.1c-1.4-4-2.5-20.7-2.9-30.4h5.7c-0.3 9.7-1.4 26.4-2.8 30.4M76.9 47H71v-2h6c0 0.6 0 1.3-0.1 2M74 37c2.3 0 3 1.3 3 6h-6c0-4.7 0.7-6 3-6M46.5 24.5c4 0 4.3 2.2 4.7 6.8 0.3 3.6 0.7 8 4.1 11.4s7.8 3.8 11.3 4c0.9 0.1 1.7 0.1 2.4 0.2 0.1 3.9 0.4 10.2 0.9 16.4-4.6 8.7-13.6 14.1-23.4 14.1C31.9 77.5 20 65.6 20 51s11.9-26.5 26.5-26.5" fill="#475f45" data-fill-palette-color="accent"></path><path d="M38 41c2.8 0 5-2.2 5-5s-2.2-5-5-5-5 2.2-5 5 2.2 5 5 5m0-8c1.7 0 3 1.3 3 3s-1.3 3-3 3-3-1.3-3-3 1.3-3 3-3M35 47c0-2.8-2.2-5-5-5s-5 2.2-5 5 2.2 5 5 5 5-2.2 5-5m-8 0c0-1.7 1.3-3 3-3s3 1.3 3 3-1.3 3-3 3-3-1.3-3-3M33 56c-2.8 0-5 2.2-5 5s2.2 5 5 5 5-2.2 5-5-2.2-5-5-5m0 8c-1.7 0-3-1.3-3-3s1.3-3 3-3 3 1.3 3 3-1.3 3-3 3M39 70c0 2.8 2.2 5 5 5s5-2.2 5-5-2.2-5-5-5-5 2.2-5 5m5-3c1.7 0 3 1.3 3 3s-1.3 3-3 3-3-1.3-3-3 1.3-3 3-3M71.5 23.3c-1.1 1-2.5 2.3-2.5 4.7 0 2.8 2.2 5 5 5s5-2.2 5-5c0-2.3 0-6.5-4.4-9.8-0.3-0.3-0.8-0.3-1.1 0s-0.5 0.7-0.4 1.1c0.4 2.1-0.4 2.9-1.6 4m1.3 1.5c0.9-0.8 1.9-1.8 2.3-3.4C77 23.7 77 26.3 77 28s-1.3 3-3 3-3-1.3-3-3c0-1.6 0.8-2.3 1.8-3.2" fill="#475f45" data-fill-palette-color="accent"></path></svg></g></svg></g></svg></g></svg></g></svg></g><path d="M158.6 65.941L158.6 2.229 395.52 2.229 395.52 244.971 158.6 244.971 158.6 181.259 161.516 181.259 161.516 242.055 392.604 242.055 392.604 5.145 161.516 5.145 161.516 65.941Z" fill="#475f45" stroke="transparent" data-fill-palette-color="tertiary"></path></svg></g><defs></defs></svg><rect width="395.52" height="247.2" fill="none" stroke="none" visibility="hidden"></rect></g></svg></g></svg>